<svg xmlns="http://www.w3.org/2000/svg" xmlns:xlink="http://www.w3.org/1999/xlink" width="200" zoomAndPan="magnify" viewBox="0 0 150 112.499997" height="150" preserveAspectRatio="xMidYMid meet" version="1.0"><defs><g/><clipPath id="2c940aa528"><path d="M 6.460938 3.636719 L 84.234375 3.636719 L 84.234375 73.492188 L 6.460938 73.492188 Z M 6.460938 3.636719 " clip-rule="nonzero"/></clipPath><clipPath id="d11f65f05a"><path d="M 32.398438 71.15625 C 36.386719 72.511719 40.917969 73.402344 45.367188 73.402344 C 49.816406 73.402344 54.097656 72.640625 58.042969 71.285156 C 58.128906 71.242188 58.210938 71.242188 58.296875 71.199219 C 73.113281 65.773438 84.023438 51.453125 84.234375 35.292969 L 84.234375 3.636719 L 6.460938 3.636719 L 6.460938 35.269531 C 6.671875 51.539062 17.414062 65.859375 32.398438 71.15625 Z M 32.398438 71.15625 " clip-rule="nonzero"/></clipPath><clipPath id="fa1631d388"><path d="M 67.976562 3.632812 L 81.410156 3.632812 L 81.410156 17.066406 L 67.976562 17.066406 Z M 67.976562 3.632812 " clip-rule="nonzero"/></clipPath><clipPath id="89d39649b2"><path d="M 2.246094 1.652344 L 13.898438 1.652344 L 13.898438 14.066406 L 2.246094 14.066406 Z M 2.246094 1.652344 " clip-rule="nonzero"/></clipPath><clipPath id="ae98f79712"><path d="M 11 8 L 14.410156 8 L 14.410156 13 L 11 13 Z M 11 8 " clip-rule="nonzero"/></clipPath><clipPath id="772a411c97"><path d="M 1.550781 0.632812 L 6.667969 0.632812 L 6.667969 6.082031 L 1.550781 6.082031 Z M 1.550781 0.632812 " clip-rule="nonzero"/></clipPath><clipPath id="89226b8d87"><rect x="0" width="15" y="0" height="15"/></clipPath><clipPath id="2602b8e3f8"><rect x="0" width="41" y="0" height="26"/></clipPath><clipPath id="cc629678a8"><path d="M 0.535156 0 L 117.855469 0 L 117.855469 107.28125 L 0.535156 107.28125 Z M 0.535156 0 " clip-rule="nonzero"/></clipPath><clipPath id="5e56885dc8"><path d="M 57 0 L 117 0 L 117 107 L 57 107 Z M 57 0 " clip-rule="nonzero"/></clipPath><clipPath id="b5ae8b4673"><path d="M 60 0 L 114 0 L 114 104 L 60 104 Z M 60 0 " clip-rule="nonzero"/></clipPath><clipPath id="9ae98b0b87"><rect x="0" width="118" y="0" height="108"/></clipPath><clipPath id="b010a206e0"><rect x="0" width="118" y="0" height="108"/></clipPath></defs><g transform="matrix(1, 0, 0, 1, 17, 0)"><g clip-path="url(#b010a206e0)"><g clip-path="url(#2c940aa528)"><g clip-path="url(#d11f65f05a)"><path stroke-linecap="butt" transform="matrix(1.343473, 0, 0, 1.343473, 6.46068, 3.636787)" fill="none" stroke-linejoin="miter" d="M 19.306492 50.257391 C 22.275127 51.266319 25.647914 51.929246 28.959643 51.929246 C 32.271371 51.929246 35.458074 51.362269 38.394725 50.353341 C 38.458692 50.321357 38.519751 50.321357 38.583717 50.289374 C 49.612151 46.250752 57.733009 35.59158 57.890018 23.56294 L 57.890018 -0.0000508981 L 0.000191345 -0.0000508981 L 0.000191345 23.545495 C 0.1572 35.655547 8.153033 46.314718 19.306492 50.257391 Z M 19.306492 50.257391 " stroke="#000000" stroke-width="1.111569" stroke-opacity="1" stroke-miterlimit="4"/></g></g><g clip-path="url(#fa1631d388)"><g transform="matrix(1, 0, 0, 1, 67, 3)"><g clip-path="url(#89226b8d87)"><g clip-path="url(#89d39649b2)"><path fill="#100f0d" d="M 8.078125 1.664062 C 8.230469 7.574219 8.351562 7.703125 13.890625 7.867188 C 8.351562 8.027344 8.230469 8.15625 8.078125 14.066406 C 7.925781 8.15625 7.804688 8.027344 2.269531 7.867188 C 7.804688 7.703125 7.925781 7.574219 8.078125 1.664062 " fill-opacity="1" fill-rule="nonzero"/></g><g clip-path="url(#ae98f79712)"><path fill="#100f0d" d="M 13.296875 8.914062 C 13.339844 10.617188 13.375 10.65625 14.972656 10.699219 C 13.375 10.746094 13.339844 10.785156 13.296875 12.488281 C 13.253906 10.785156 13.21875 10.746094 11.621094 10.699219 C 13.21875 10.65625 13.253906 10.617188 13.296875 8.914062 " fill-opacity="1" fill-rule="nonzero"/></g><g clip-path="url(#772a411c97)"><path fill="#100f0d" d="M 4.09375 6.066406 C 4.027344 3.476562 3.972656 3.417969 1.550781 3.347656 C 3.972656 3.277344 4.027344 3.21875 4.09375 0.632812 C 4.160156 3.21875 4.214844 3.277344 6.640625 3.347656 C 4.214844 3.417969 4.160156 3.476562 4.09375 6.066406 " fill-opacity="1" fill-rule="nonzero"/></g></g></g></g><g transform="matrix(1, 0, 0, 1, 14, 50)"><g clip-path="url(#2602b8e3f8)"><g fill="#000000" fill-opacity="1"><g transform="translate(3.994545, 7.132909)"><g><path d="M 0.421875 0.4375 L 3.421875 -2.53125 L 4.578125 -1.359375 C 4.859375 -1.078125 5.007812 -0.773438 5.03125 -0.453125 C 5.0625 -0.128906 4.957031 0.148438 4.71875 0.390625 C 4.570312 0.523438 4.410156 0.609375 4.234375 0.640625 C 4.054688 0.679688 3.878906 0.679688 3.703125 0.640625 C 3.785156 0.835938 3.800781 1.039062 3.75 1.25 C 3.707031 1.457031 3.601562 1.644531 3.4375 1.8125 C 3.175781 2.0625 2.882812 2.171875 2.5625 2.140625 C 2.238281 2.117188 1.929688 1.957031 1.640625 1.65625 Z M 1.15625 0.46875 L 1.984375 1.296875 C 2.171875 1.492188 2.363281 1.601562 2.5625 1.625 C 2.757812 1.644531 2.9375 1.578125 3.09375 1.421875 C 3.25 1.253906 3.316406 1.070312 3.296875 0.875 C 3.273438 0.6875 3.171875 0.492188 2.984375 0.296875 L 2.15625 -0.53125 Z M 2.5 -0.859375 L 3.265625 -0.078125 C 3.453125 0.109375 3.632812 0.207031 3.8125 0.21875 C 4 0.226562 4.171875 0.160156 4.328125 0.015625 C 4.472656 -0.128906 4.535156 -0.289062 4.515625 -0.46875 C 4.503906 -0.65625 4.40625 -0.84375 4.21875 -1.03125 L 3.453125 -1.8125 Z M 2.5 -0.859375 "/></g></g></g><g fill="#000000" fill-opacity="1"><g transform="translate(7.447496, 10.494198)"><g><path d="M 0.46875 0.390625 L 3.15625 -2.859375 L 3.5625 -2.53125 L 0.875 0.71875 Z M 0.46875 0.390625 "/></g></g></g><g fill="#000000" fill-opacity="1"><g transform="translate(9.392992, 12.11949)"><g><path d="M 1.625 1.1875 C 1.351562 1 1.144531 0.785156 1 0.546875 C 0.851562 0.316406 0.785156 0.0820312 0.796875 -0.15625 C 0.804688 -0.40625 0.878906 -0.644531 1.015625 -0.875 L 1.453125 -0.578125 C 1.316406 -0.347656 1.289062 -0.113281 1.375 0.125 C 1.457031 0.375 1.632812 0.59375 1.90625 0.78125 C 2.15625 0.945312 2.382812 1.023438 2.59375 1.015625 C 2.8125 1.003906 2.976562 0.914062 3.09375 0.75 C 3.195312 0.582031 3.210938 0.398438 3.140625 0.203125 C 3.066406 0.015625 2.894531 -0.21875 2.625 -0.5 C 2.269531 -0.882812 2.046875 -1.222656 1.953125 -1.515625 C 1.859375 -1.816406 1.90625 -2.109375 2.09375 -2.390625 C 2.289062 -2.679688 2.554688 -2.835938 2.890625 -2.859375 C 3.234375 -2.890625 3.597656 -2.773438 3.984375 -2.515625 C 4.378906 -2.253906 4.625 -1.945312 4.71875 -1.59375 C 4.820312 -1.238281 4.765625 -0.890625 4.546875 -0.546875 L 4.09375 -0.84375 C 4.226562 -1.0625 4.257812 -1.28125 4.1875 -1.5 C 4.113281 -1.726562 3.953125 -1.925781 3.703125 -2.09375 C 3.453125 -2.257812 3.222656 -2.335938 3.015625 -2.328125 C 2.804688 -2.328125 2.648438 -2.242188 2.546875 -2.078125 C 2.441406 -1.929688 2.421875 -1.765625 2.484375 -1.578125 C 2.546875 -1.390625 2.722656 -1.140625 3.015625 -0.828125 C 3.390625 -0.421875 3.617188 -0.0703125 3.703125 0.21875 C 3.785156 0.507812 3.738281 0.785156 3.5625 1.046875 C 3.363281 1.347656 3.085938 1.507812 2.734375 1.53125 C 2.390625 1.5625 2.019531 1.445312 1.625 1.1875 Z M 1.625 1.1875 "/></g></g></g><g fill="#000000" fill-opacity="1"><g transform="translate(13.367287, 14.73054)"><g><path d="M 3.0625 1.46875 L 3.890625 -0.25 L 1.859375 -1.21875 L 1.03125 0.5 L 0.546875 0.265625 L 2.375 -3.53125 L 2.859375 -3.296875 L 2.078125 -1.671875 L 4.109375 -0.703125 L 4.890625 -2.328125 L 5.359375 -2.09375 L 3.53125 1.703125 Z M 3.0625 1.46875 "/></g></g></g><g fill="#000000" fill-opacity="1"><g transform="translate(18.259225, 17.004571)"><g><path d="M 2.09375 0.734375 C 1.59375 0.578125 1.25 0.304688 1.0625 -0.078125 C 0.882812 -0.472656 0.875 -0.9375 1.03125 -1.46875 L 1.78125 -3.859375 L 2.296875 -3.703125 L 1.5625 -1.34375 C 1.4375 -0.9375 1.429688 -0.601562 1.546875 -0.34375 C 1.660156 -0.0820312 1.894531 0.101562 2.25 0.21875 C 2.945312 0.425781 3.421875 0.117188 3.671875 -0.703125 L 4.40625 -3.0625 L 4.90625 -2.90625 L 4.15625 -0.515625 C 4 0.015625 3.738281 0.390625 3.375 0.609375 C 3.007812 0.835938 2.582031 0.878906 2.09375 0.734375 Z M 2.09375 0.734375 "/></g></g></g><g fill="#000000" fill-opacity="1"><g transform="translate(23.306603, 18.502458)"><g><path d="M 0.609375 0.09375 L 1.234375 -4.078125 L 1.71875 -4 L 3.5625 -0.390625 L 4.046875 -3.65625 L 4.546875 -3.578125 L 3.921875 0.59375 L 3.4375 0.515625 L 1.625 -3.109375 L 1.125 0.171875 Z M 0.609375 0.09375 "/></g></g></g><g fill="#000000" fill-opacity="1"><g transform="translate(28.698815, 19.238325)"><g><path d="M 0.609375 0 L 0.625 -4.21875 L 1.15625 -4.21875 L 1.15625 -2.40625 L 1.765625 -2.390625 C 2.046875 -2.390625 2.257812 -2.441406 2.40625 -2.546875 C 2.550781 -2.648438 2.664062 -2.816406 2.75 -3.046875 L 3.1875 -4.203125 L 3.75 -4.203125 L 3.234375 -2.828125 C 3.171875 -2.671875 3.09375 -2.53125 3 -2.40625 C 2.914062 -2.289062 2.816406 -2.191406 2.703125 -2.109375 L 3.890625 0.015625 L 3.28125 0.015625 L 2.203125 -1.921875 C 2.066406 -1.898438 1.921875 -1.890625 1.765625 -1.890625 L 1.15625 -1.90625 L 1.140625 0 Z M 0.609375 0 "/></g></g></g><g fill="#000000" fill-opacity="1"><g transform="translate(33.654126, 19.191914)"><g><path d="M 0.609375 -0.078125 L 0.078125 -4.265625 L 2.609375 -4.59375 L 2.671875 -4.109375 L 0.65625 -3.84375 L 0.828125 -2.515625 L 2.703125 -2.75 L 2.765625 -2.265625 L 0.890625 -2.03125 L 1.0625 -0.640625 L 3.15625 -0.90625 L 3.21875 -0.40625 Z M 0.609375 -0.078125 "/></g></g></g></g></g><g clip-path="url(#cc629678a8)"><g transform="matrix(1, 0, 0, 1, -0.000000000000003553, 0)"><g clip-path="url(#9ae98b0b87)"><g fill="#f1efe7" fill-opacity="1"><g transform="translate(6.574391, 34.170637)"><g><path d="M 33.816406 -20.425781 C 35.148438 -19.851562 36.046875 -18.871094 36.507812 -17.484375 C 36.921875 -16.246094 36.871094 -15.039062 36.367188 -13.855469 L 36.332031 -13.773438 L 36.292969 -13.699219 C 35.277344 -11.613281 34.167969 -9.527344 32.96875 -7.445312 C 31.734375 -5.308594 30.441406 -3.34375 29.089844 -1.550781 C 27.625 0.390625 26.089844 1.964844 24.480469 3.171875 C 22.511719 4.648438 20.464844 5.386719 18.339844 5.386719 C 17.886719 5.386719 17.410156 5.347656 16.910156 5.261719 L 16.816406 5.246094 C 13.902344 4.679688 11.660156 2.691406 10.085938 -0.726562 C 8.847656 -3.410156 8.003906 -7.105469 7.550781 -11.8125 L 11.066406 -12.148438 L 13.90625 -10.050781 C 13.007812 -8.835938 11.964844 -7.476562 10.78125 -5.976562 C 9.574219 -4.449219 8.304688 -2.9375 6.96875 -1.441406 L 6.902344 -1.367188 L 6.828125 -1.296875 C 6.601562 -1.066406 6.242188 -0.71875 5.75 -0.257812 C 4.972656 0.476562 4.078125 1.054688 3.058594 1.480469 C 1.445312 2.152344 -0.152344 2.09375 -1.734375 1.300781 L -0.15625 -1.855469 L -1.394531 1.449219 C -2.941406 0.871094 -4.058594 -0.207031 -4.757812 -1.785156 C -5.265625 -2.933594 -5.503906 -4.328125 -5.464844 -5.964844 L -1.933594 -5.882812 L -5.464844 -5.882812 C -5.464844 -7.46875 -5.183594 -9.359375 -4.621094 -11.558594 C -4.074219 -13.675781 -3.304688 -15.804688 -2.308594 -17.9375 C -1.285156 -20.132812 -0.0742188 -22.09375 1.320312 -23.8125 C 2.957031 -25.832031 4.839844 -27.210938 6.972656 -27.945312 L 8.125 -24.609375 L 6.84375 -27.898438 C 8.382812 -28.496094 10.144531 -28.625 12.132812 -28.28125 C 14.316406 -27.902344 16.40625 -26.539062 18.402344 -24.183594 C 19.273438 -23.140625 19.664062 -21.941406 19.582031 -20.597656 C 19.492188 -19.171875 18.902344 -18.003906 17.816406 -17.097656 C 16.785156 -16.242188 15.597656 -15.855469 14.25 -15.9375 C 12.824219 -16.027344 11.660156 -16.617188 10.753906 -17.703125 C 10.382812 -18.136719 10.074219 -18.429688 9.832031 -18.585938 C 9.824219 -18.59375 9.816406 -18.597656 9.808594 -18.601562 L 9.8125 -18.597656 C 9.84375 -18.582031 9.878906 -18.570312 9.925781 -18.554688 C 10.117188 -18.496094 10.324219 -18.476562 10.554688 -18.496094 C 10.324219 -18.476562 10.167969 -18.4375 10.089844 -18.378906 C 9.3125 -17.816406 8.585938 -16.964844 7.902344 -15.828125 C 7.089844 -14.472656 6.414062 -13.050781 5.871094 -11.5625 C 5.324219 -10.054688 4.9375 -8.664062 4.714844 -7.398438 C 4.523438 -6.308594 4.453125 -5.621094 4.496094 -5.335938 L 1.007812 -4.796875 L -0.953125 -7.734375 C -0.914062 -7.761719 -0.863281 -7.804688 -0.789062 -7.867188 C -0.777344 -7.875 -0.734375 -7.925781 -0.667969 -8.007812 L -0.597656 -8.097656 L -0.523438 -8.179688 C 0.960938 -9.808594 2.316406 -11.425781 3.546875 -13.023438 C 4.8125 -14.671875 5.902344 -16.125 6.808594 -17.386719 C 7.050781 -17.726562 7.28125 -18.054688 7.503906 -18.375 C 7.785156 -18.777344 8.050781 -19.140625 8.308594 -19.460938 C 8.984375 -20.308594 9.820312 -20.871094 10.8125 -21.15625 C 11.753906 -21.421875 12.726562 -21.402344 13.730469 -21.09375 L 12.691406 -17.722656 L 13.484375 -21.160156 C 14.597656 -20.902344 15.5 -20.355469 16.191406 -19.519531 C 16.847656 -18.722656 17.214844 -17.765625 17.296875 -16.65625 L 17.300781 -16.613281 L 17.300781 -16.566406 C 17.449219 -13.382812 17.699219 -10.851562 18.054688 -8.976562 C 18.386719 -7.222656 18.726562 -5.976562 19.070312 -5.234375 C 19.234375 -4.878906 19.382812 -4.597656 19.511719 -4.390625 C 19.550781 -4.332031 19.578125 -4.292969 19.601562 -4.265625 C 19.582031 -4.289062 19.550781 -4.320312 19.503906 -4.359375 L 19.5 -4.347656 C 19.105469 -4.578125 18.640625 -4.691406 18.109375 -4.691406 L 18.476562 -4.691406 L 18.835938 -4.617188 C 18.480469 -4.691406 18.167969 -4.6875 17.898438 -4.601562 L 17.898438 -4.605469 C 17.960938 -4.636719 18.035156 -4.679688 18.121094 -4.734375 C 18.679688 -5.09375 19.40625 -5.730469 20.300781 -6.644531 C 22.199219 -8.589844 24.511719 -12.378906 27.230469 -18.019531 C 27.890625 -19.332031 28.875 -20.207031 30.183594 -20.644531 C 31.570312 -21.105469 32.902344 -20.972656 34.175781 -20.246094 L 32.425781 -17.179688 Z M 31.03125 -13.933594 L 30.847656 -14.011719 L 30.671875 -14.113281 C 31.226562 -13.796875 31.808594 -13.742188 32.417969 -13.945312 C 32.957031 -14.125 33.347656 -14.460938 33.589844 -14.949219 C 30.535156 -8.617188 27.789062 -4.207031 25.355469 -1.710938 C 24.082031 -0.410156 22.9375 0.566406 21.925781 1.214844 C 20.328125 2.234375 18.8125 2.59375 17.378906 2.292969 L 18.109375 -1.160156 L 18.109375 2.371094 C 17.015625 2.371094 15.933594 1.898438 14.855469 0.953125 C 14.0625 0.261719 13.332031 -0.8125 12.65625 -2.273438 C 12.074219 -3.542969 11.558594 -5.339844 11.117188 -7.660156 C 10.699219 -9.863281 10.410156 -12.722656 10.246094 -16.242188 L 13.773438 -16.40625 L 10.253906 -16.152344 C 10.28125 -15.765625 10.441406 -15.390625 10.738281 -15.03125 C 11.066406 -14.632812 11.453125 -14.382812 11.898438 -14.28125 L 11.773438 -14.308594 L 11.652344 -14.347656 C 11.984375 -14.246094 12.351562 -14.25 12.75 -14.363281 C 13.203125 -14.492188 13.558594 -14.722656 13.824219 -15.050781 C 13.667969 -14.855469 13.496094 -14.625 13.3125 -14.355469 C 13.070312 -14.007812 12.8125 -13.640625 12.539062 -13.257812 C 11.585938 -11.9375 10.457031 -10.425781 9.144531 -8.71875 C 7.796875 -6.964844 6.316406 -5.203125 4.703125 -3.429688 L 2.089844 -5.804688 L 4.847656 -3.597656 C 4.5 -3.167969 4.15625 -2.804688 3.808594 -2.503906 C 3.519531 -2.257812 3.238281 -2.042969 2.964844 -1.859375 L -1.640625 1.210938 L -2.484375 -4.261719 C -2.644531 -5.316406 -2.5625 -6.765625 -2.238281 -8.621094 C -1.945312 -10.292969 -1.453125 -12.078125 -0.765625 -13.976562 C -0.0664062 -15.890625 0.800781 -17.71875 1.847656 -19.460938 C 3.023438 -21.417969 4.359375 -22.941406 5.851562 -24.027344 C 7.011719 -24.898438 8.378906 -25.398438 9.953125 -25.535156 C 12.058594 -25.714844 14.132812 -24.609375 16.175781 -22.226562 C 15.785156 -22.695312 15.289062 -22.949219 14.691406 -22.984375 C 14.167969 -23.019531 13.703125 -22.863281 13.292969 -22.523438 C 12.824219 -22.132812 12.570312 -21.636719 12.535156 -21.035156 C 12.5 -20.515625 12.660156 -20.042969 13.015625 -19.617188 C 12.492188 -20.230469 12.011719 -20.695312 11.566406 -21.003906 C 11.296875 -21.1875 11.085938 -21.296875 10.929688 -21.324219 C 10.230469 -21.441406 9.722656 -21.441406 9.40625 -21.316406 L 9.339844 -21.292969 L 9.277344 -21.269531 C 8.417969 -20.972656 7.59375 -20.339844 6.804688 -19.367188 C 5.773438 -18.097656 4.871094 -16.625 4.089844 -14.949219 C 3.277344 -13.214844 2.65625 -11.496094 2.21875 -9.800781 C 1.804688 -8.179688 1.597656 -6.875 1.597656 -5.882812 L 1.597656 -5.839844 L 1.59375 -5.800781 C 1.582031 -5.214844 1.617188 -4.828125 1.699219 -4.640625 C 1.597656 -4.875 1.390625 -5.046875 1.085938 -5.164062 L 1.257812 -5.097656 L 1.425781 -5.015625 C 1.078125 -5.1875 0.71875 -5.195312 0.34375 -5.039062 C 0.566406 -5.132812 0.753906 -5.25 0.902344 -5.390625 C 1.34375 -5.808594 1.65625 -6.105469 1.835938 -6.289062 L 4.332031 -3.792969 L 1.699219 -6.144531 C 2.941406 -7.535156 4.121094 -8.9375 5.238281 -10.351562 C 6.375 -11.792969 7.371094 -13.089844 8.226562 -14.246094 L 13.703125 -21.65625 L 14.582031 -12.484375 C 14.953125 -8.578125 15.59375 -5.640625 16.496094 -3.683594 C 17.0625 -2.457031 17.617188 -1.792969 18.160156 -1.6875 L 17.488281 1.78125 L 18.070312 -1.703125 C 18.1875 -1.683594 18.277344 -1.671875 18.339844 -1.671875 C 18.898438 -1.671875 19.53125 -1.941406 20.246094 -2.476562 C 21.320312 -3.28125 22.390625 -4.390625 23.453125 -5.800781 C 24.628906 -7.363281 25.761719 -9.085938 26.851562 -10.972656 C 27.96875 -12.914062 29.003906 -14.851562 29.945312 -16.789062 L 33.121094 -15.246094 L 29.875 -16.636719 C 29.675781 -16.175781 29.65625 -15.710938 29.808594 -15.25 C 30.015625 -14.632812 30.421875 -14.195312 31.03125 -13.933594 Z M 31.03125 -13.933594 "/></g></g></g><g fill="#f1efe7" fill-opacity="1"><g transform="translate(36.289856, 34.170637)"><g><path d="M 32.9375 -20.320312 C 34.152344 -19.628906 34.9375 -18.613281 35.292969 -17.277344 C 35.644531 -15.953125 35.480469 -14.695312 34.792969 -13.492188 C 32.265625 -9.027344 29.964844 -5.566406 27.886719 -3.101562 C 25.128906 0.171875 22.105469 1.601562 18.820312 1.179688 C 14.703125 0.6875 11.683594 -2.945312 9.757812 -9.714844 C 9.316406 -11.171875 8.953125 -12.175781 8.664062 -12.734375 C 8.53125 -12.992188 8.421875 -13.183594 8.339844 -13.304688 C 8.332031 -13.316406 8.328125 -13.324219 8.324219 -13.328125 C 8.332031 -13.316406 8.34375 -13.304688 8.359375 -13.289062 C 8.449219 -13.179688 8.566406 -13.070312 8.703125 -12.960938 C 8.746094 -12.929688 8.808594 -12.890625 8.898438 -12.84375 C 9.335938 -12.605469 9.828125 -12.488281 10.371094 -12.488281 L 9.796875 -12.488281 L 9.253906 -12.667969 C 9.832031 -12.476562 10.410156 -12.445312 10.992188 -12.570312 C 11.214844 -12.621094 11.417969 -12.691406 11.601562 -12.785156 L 11.609375 -12.765625 C 11.417969 -12.621094 10.984375 -12.070312 10.308594 -11.113281 C 9.539062 -10.027344 8.550781 -8.261719 7.34375 -5.824219 C 6.089844 -3.292969 4.550781 0.203125 2.726562 4.664062 C 2.332031 5.613281 1.746094 6.363281 0.972656 6.910156 C 0.140625 7.492188 -0.800781 7.785156 -1.855469 7.785156 C -2.566406 7.785156 -3.222656 7.636719 -3.824219 7.335938 L -2.242188 4.179688 L -3.054688 7.617188 C -4.351562 7.308594 -5.355469 6.660156 -6.066406 5.667969 C -6.789062 4.660156 -7.070312 3.484375 -6.910156 2.140625 C -6.636719 -0.117188 -6.148438 -2.707031 -5.445312 -5.625 C -4.765625 -8.449219 -4.019531 -11.324219 -3.210938 -14.25 C -2.402344 -17.160156 -1.664062 -19.757812 -0.988281 -22.050781 L -0.558594 -23.484375 C -0.445312 -23.871094 -0.34375 -24.246094 -0.253906 -24.613281 L -0.203125 -24.808594 L -0.132812 -24.996094 C 0.347656 -26.273438 1.179688 -27.210938 2.367188 -27.804688 C 3.546875 -28.394531 4.757812 -28.511719 6 -28.15625 L 5.03125 -24.761719 L 5.886719 -28.1875 C 7.273438 -27.839844 8.320312 -27.050781 9.023438 -25.816406 C 9.777344 -24.496094 9.882812 -23.113281 9.34375 -21.664062 L 6.035156 -22.90625 L 9.460938 -22.050781 C 9.347656 -21.589844 9.21875 -21.117188 9.074219 -20.632812 L 8.644531 -19.191406 L 5.261719 -20.195312 L 8.671875 -19.28125 C 8.304688 -17.914062 7.886719 -16.421875 7.414062 -14.800781 L 6.027344 -9.941406 L 2.632812 -10.910156 L -0.488281 -12.566406 C 1.46875 -16.25 3.230469 -18.777344 4.792969 -20.144531 C 6.75 -21.855469 8.71875 -22.660156 10.699219 -22.5625 C 12.125 -22.460938 13.390625 -22.023438 14.492188 -21.246094 C 15.503906 -20.535156 16.347656 -19.566406 17.019531 -18.34375 C 17.972656 -16.617188 18.769531 -14.648438 19.410156 -12.433594 C 19.757812 -11.226562 20.085938 -10.261719 20.390625 -9.542969 C 20.515625 -9.246094 20.628906 -9.011719 20.734375 -8.828125 C 20.765625 -8.773438 20.792969 -8.730469 20.816406 -8.699219 C 20.808594 -8.707031 20.796875 -8.722656 20.773438 -8.746094 C 20.957031 -8.550781 21.082031 -8.425781 21.148438 -8.375 C 21.070312 -8.433594 20.96875 -8.488281 20.84375 -8.546875 C 20.480469 -8.710938 20.085938 -8.792969 19.65625 -8.792969 L 19.925781 -8.792969 L 20.191406 -8.75 C 19.8125 -8.808594 19.492188 -8.777344 19.234375 -8.652344 C 19.292969 -8.683594 19.410156 -8.78125 19.59375 -8.953125 C 20.3125 -9.632812 21.054688 -10.523438 21.8125 -11.632812 C 22.683594 -12.902344 23.507812 -14.160156 24.277344 -15.402344 C 25.019531 -16.601562 25.574219 -17.566406 25.9375 -18.292969 L 25.980469 -18.382812 L 26.03125 -18.464844 C 26.734375 -19.699219 27.78125 -20.488281 29.167969 -20.835938 C 30.5 -21.167969 31.753906 -20.996094 32.9375 -20.320312 Z M 29.433594 -14.191406 C 29.894531 -13.929688 30.375 -13.859375 30.882812 -13.984375 C 31.441406 -14.125 31.871094 -14.453125 32.160156 -14.964844 L 29.097656 -16.714844 L 32.253906 -15.136719 C 31.792969 -14.214844 31.136719 -13.0625 30.277344 -11.683594 C 29.449219 -10.34375 28.570312 -8.996094 27.636719 -7.636719 C 26.589844 -6.113281 25.523438 -4.839844 24.4375 -3.816406 C 22.699219 -2.175781 20.925781 -1.496094 19.117188 -1.773438 L 19.65625 -5.261719 L 19.65625 -1.730469 C 18.726562 -1.730469 17.828125 -2.050781 16.960938 -2.691406 C 16.539062 -3.003906 16.082031 -3.417969 15.597656 -3.941406 C 14.546875 -5.074219 13.554688 -7.253906 12.628906 -10.472656 C 12.132812 -12.179688 11.535156 -13.667969 10.835938 -14.933594 C 10.6875 -15.207031 10.550781 -15.386719 10.425781 -15.472656 C 10.394531 -15.496094 10.367188 -15.507812 10.347656 -15.511719 C 10.398438 -15.507812 10.441406 -15.511719 10.472656 -15.515625 C 10.449219 -15.511719 10.410156 -15.496094 10.359375 -15.472656 C 10.109375 -15.359375 9.800781 -15.144531 9.445312 -14.832031 C 8.53125 -14.035156 7.300781 -12.175781 5.75 -9.253906 L -0.765625 -11.882812 L 0.632812 -16.769531 C 1.089844 -18.347656 1.496094 -19.796875 1.851562 -21.113281 L 1.863281 -21.160156 L 2.300781 -22.625 C 2.414062 -23.015625 2.519531 -23.394531 2.609375 -23.761719 L 2.660156 -23.957031 L 2.730469 -24.144531 C 2.496094 -23.523438 2.550781 -22.914062 2.894531 -22.316406 C 3.183594 -21.804688 3.613281 -21.476562 4.171875 -21.335938 L 4.117188 -21.351562 L 4.058594 -21.367188 C 4.578125 -21.21875 5.066406 -21.261719 5.527344 -21.488281 C 5.992188 -21.722656 6.308594 -22.066406 6.480469 -22.515625 L 3.171875 -23.757812 L 6.597656 -22.902344 C 6.484375 -22.441406 6.351562 -21.964844 6.207031 -21.472656 L 5.785156 -20.046875 C 5.121094 -17.796875 4.390625 -15.238281 3.597656 -12.367188 C 2.808594 -9.515625 2.082031 -6.71875 1.421875 -3.972656 C 0.78125 -1.316406 0.34375 0.996094 0.101562 2.964844 C 0.15625 2.5 0.015625 2.035156 -0.320312 1.566406 C -0.640625 1.117188 -1.011719 0.839844 -1.433594 0.742188 L -1.035156 0.835938 L -0.664062 1.019531 C -1.058594 0.824219 -1.457031 0.726562 -1.855469 0.726562 C -2.292969 0.726562 -2.710938 0.863281 -3.101562 1.140625 C -3.433594 1.375 -3.671875 1.660156 -3.808594 1.992188 C -1.921875 -2.625 -0.3125 -6.277344 1.015625 -8.957031 C 2.386719 -11.726562 3.5625 -13.808594 4.546875 -15.195312 C 5.625 -16.71875 6.535156 -17.765625 7.273438 -18.339844 C 7.6875 -18.664062 8.078125 -18.917969 8.441406 -19.097656 C 9.46875 -19.613281 10.484375 -19.703125 11.484375 -19.367188 L 10.371094 -16.019531 L 10.371094 -19.550781 C 11.28125 -19.550781 12.171875 -19.210938 13.039062 -18.535156 C 13.679688 -18.035156 14.3125 -17.183594 14.9375 -15.976562 C 15.421875 -15.035156 15.960938 -13.59375 16.550781 -11.644531 C 17.183594 -9.417969 17.886719 -7.78125 18.65625 -6.726562 C 19.070312 -6.160156 19.425781 -5.859375 19.71875 -5.824219 C 20.457031 -5.730469 21.378906 -6.339844 22.488281 -7.652344 C 24.28125 -9.78125 26.339844 -12.894531 28.660156 -16.996094 C 28.386719 -16.519531 28.324219 -16.003906 28.472656 -15.457031 C 28.621094 -14.894531 28.941406 -14.472656 29.433594 -14.191406 Z M 29.433594 -14.191406 "/></g></g></g><g fill="#f1efe7" fill-opacity="1"><g transform="translate(63.915955, 34.170637)"><g><path d="M 30.066406 -19.742188 C 31.265625 -18.886719 31.957031 -17.738281 32.136719 -16.300781 C 32.3125 -14.875 31.945312 -13.613281 31.035156 -12.519531 L 28.324219 -14.78125 L 31.097656 -12.59375 C 29.566406 -10.652344 27.789062 -8.921875 25.765625 -7.394531 C 23.679688 -5.820312 21.484375 -4.652344 19.1875 -3.886719 C 16.625 -3.03125 14.121094 -2.886719 11.671875 -3.445312 L 12.457031 -6.886719 L 15.738281 -5.574219 C 14.769531 -3.152344 13.359375 -1.253906 11.511719 0.121094 C 9.570312 1.570312 7.539062 2.292969 5.417969 2.292969 L 5.273438 2.292969 L 5.207031 2.289062 C 2.996094 2.207031 1.050781 1.449219 -0.628906 0.015625 C -2.25 -1.371094 -3.363281 -3.222656 -3.960938 -5.539062 C -4.554688 -7.859375 -4.648438 -10.085938 -4.242188 -12.230469 C -3.84375 -14.324219 -3.097656 -16.1875 -2.007812 -17.820312 C -0.914062 -19.464844 0.351562 -20.753906 1.789062 -21.6875 L 3.714844 -18.726562 L 1.664062 -21.601562 C 2.328125 -22.074219 3.058594 -22.363281 3.855469 -22.460938 C 4.59375 -22.554688 5.332031 -22.476562 6.070312 -22.230469 L 4.953125 -18.882812 L 1.683594 -20.21875 C 2.402344 -21.972656 3.457031 -23.355469 4.847656 -24.367188 C 6.5 -25.566406 8.273438 -26.007812 10.175781 -25.691406 C 11.425781 -25.464844 12.628906 -24.835938 13.792969 -23.808594 C 14.992188 -22.75 15.886719 -21.117188 16.484375 -18.914062 C 16.996094 -17.03125 17.164062 -14.429688 16.992188 -11.113281 L 16.984375 -11.03125 L 16.976562 -10.945312 C 16.914062 -10.316406 16.820312 -9.6875 16.695312 -9.058594 L 13.234375 -9.75 L 13.875 -13.222656 C 14.632812 -13.082031 15.484375 -13.183594 16.429688 -13.53125 C 17.613281 -13.964844 18.777344 -14.640625 19.921875 -15.558594 C 21.148438 -16.546875 22.222656 -17.628906 23.136719 -18.804688 L 23.171875 -18.851562 L 23.210938 -18.898438 C 24.0625 -19.921875 25.15625 -20.515625 26.492188 -20.683594 C 27.917969 -20.859375 29.179688 -20.492188 30.273438 -19.582031 L 28.011719 -16.871094 Z M 25.960938 -13.996094 L 25.855469 -14.074219 L 25.753906 -14.15625 C 26.226562 -13.761719 26.765625 -13.601562 27.367188 -13.675781 C 27.875 -13.738281 28.300781 -13.972656 28.636719 -14.378906 L 25.921875 -16.636719 L 28.710938 -14.46875 C 27.457031 -12.859375 26.003906 -11.386719 24.34375 -10.054688 C 22.597656 -8.652344 20.769531 -7.601562 18.859375 -6.898438 C 16.707031 -6.109375 14.617188 -5.902344 12.589844 -6.277344 L 9.066406 -6.929688 L 9.769531 -10.441406 C 9.851562 -10.847656 9.910156 -11.246094 9.953125 -11.648438 L 13.464844 -11.296875 L 9.9375 -11.484375 C 10.074219 -14.046875 9.984375 -15.910156 9.671875 -17.066406 C 9.527344 -17.589844 9.378906 -18.007812 9.21875 -18.316406 C 9.171875 -18.414062 9.125 -18.488281 9.085938 -18.542969 C 9.078125 -18.550781 9.074219 -18.558594 9.074219 -18.558594 C 9.082031 -18.546875 9.097656 -18.535156 9.113281 -18.519531 C 8.964844 -18.652344 8.847656 -18.742188 8.753906 -18.792969 C 8.789062 -18.773438 8.875 -18.75 9.015625 -18.726562 C 9.046875 -18.722656 9.082031 -18.722656 9.121094 -18.734375 C 9.089844 -18.714844 9.050781 -18.691406 9.003906 -18.65625 C 8.691406 -18.433594 8.429688 -18.0625 8.21875 -17.542969 L 6.96875 -14.488281 L 3.835938 -15.53125 C 4.109375 -15.441406 4.410156 -15.414062 4.734375 -15.457031 C 5.117188 -15.503906 5.460938 -15.636719 5.765625 -15.855469 L 5.703125 -15.808594 L 5.636719 -15.765625 C 5.011719 -15.359375 4.421875 -14.738281 3.867188 -13.90625 C 3.304688 -13.0625 2.914062 -12.066406 2.695312 -10.910156 C 2.484375 -9.800781 2.542969 -8.597656 2.878906 -7.304688 C 3.105469 -6.425781 3.464844 -5.773438 3.957031 -5.355469 C 4.390625 -4.984375 4.894531 -4.789062 5.46875 -4.765625 L 5.339844 -1.238281 L 5.339844 -4.769531 L 5.417969 -4.769531 C 5.976562 -4.769531 6.601562 -5.027344 7.292969 -5.539062 C 8.074219 -6.125 8.703125 -7.007812 9.179688 -8.199219 L 10.300781 -11 L 13.246094 -10.328125 C 14.40625 -10.0625 15.644531 -10.148438 16.953125 -10.585938 C 18.523438 -11.109375 20.042969 -11.925781 21.515625 -13.035156 C 23.050781 -14.191406 24.398438 -15.503906 25.550781 -16.964844 L 25.578125 -17.003906 L 25.609375 -17.039062 C 25.214844 -16.566406 25.054688 -16.027344 25.128906 -15.425781 C 25.207031 -14.816406 25.484375 -14.339844 25.960938 -13.996094 Z M 5.417969 -7.785156 C 5.285156 -7.785156 5.1875 -7.773438 5.132812 -7.75 C 5.230469 -7.792969 5.367188 -7.878906 5.542969 -8.007812 C 5.855469 -8.242188 6.144531 -8.683594 6.414062 -9.328125 L 9.671875 -7.96875 L 7.957031 -4.882812 C 5.546875 -6.222656 3.78125 -7.835938 2.65625 -9.722656 C 1.546875 -11.578125 0.957031 -13.476562 0.882812 -15.417969 L 4.410156 -15.554688 L 6.847656 -12.996094 C 6.292969 -12.46875 5.921875 -11.765625 5.738281 -10.882812 C 5.519531 -9.847656 5.515625 -8.960938 5.722656 -8.226562 C 5.785156 -7.992188 5.953125 -7.667969 6.21875 -7.25 C 6.101562 -7.429688 5.9375 -7.578125 5.71875 -7.683594 C 5.582031 -7.753906 5.484375 -7.785156 5.417969 -7.785156 Z M 5.417969 -0.726562 C 4.371094 -0.726562 3.417969 -0.941406 2.5625 -1.367188 C 1.621094 -1.839844 0.863281 -2.527344 0.28125 -3.429688 C -0.378906 -4.457031 -0.832031 -5.421875 -1.078125 -6.320312 C -1.59375 -8.167969 -1.625 -10.167969 -1.171875 -12.332031 C -0.6875 -14.648438 0.363281 -16.574219 1.976562 -18.109375 L 7.636719 -23.503906 L 7.9375 -15.691406 C 7.96875 -14.949219 8.226562 -14.164062 8.71875 -13.339844 C 9.195312 -12.542969 10.085938 -11.78125 11.386719 -11.058594 L 14.144531 -9.523438 L 12.933594 -6.613281 C 12.167969 -4.78125 11.117188 -3.363281 9.78125 -2.359375 C 8.328125 -1.269531 6.871094 -0.726562 5.417969 -0.726562 Z M 6.921875 -11.628906 C 7.011719 -13.449219 6.984375 -14.804688 6.84375 -15.695312 C 6.777344 -16.125 6.707031 -16.46875 6.632812 -16.71875 C 6.613281 -16.792969 6.597656 -16.84375 6.582031 -16.878906 C 6.601562 -16.832031 6.632812 -16.773438 6.679688 -16.699219 C 6.613281 -16.804688 6.574219 -16.867188 6.558594 -16.886719 C 6.792969 -16.582031 7.125 -16.324219 7.550781 -16.109375 L 9.132812 -19.269531 L 9.132812 -15.738281 L 9.054688 -15.738281 C 9.6875 -15.738281 10.246094 -15.898438 10.722656 -16.214844 C 10.78125 -16.253906 10.832031 -16.292969 10.871094 -16.328125 C 10.875 -16.332031 10.878906 -16.332031 10.878906 -16.332031 C 10.871094 -16.324219 10.863281 -16.316406 10.855469 -16.308594 C 10.933594 -16.386719 10.988281 -16.453125 11.019531 -16.507812 C 10.996094 -16.46875 10.96875 -16.398438 10.933594 -16.296875 C 10.855469 -16.054688 10.890625 -15.707031 11.03125 -15.25 C 11.140625 -14.894531 11.59375 -14.460938 12.382812 -13.941406 L 10.445312 -10.988281 L 6.917969 -10.988281 L 6.917969 -11.542969 Z M 13.972656 -11.277344 L 10.445312 -11.453125 L 13.976562 -11.453125 L 13.976562 -4.453125 L 8.511719 -8.035156 C 6.308594 -9.476562 4.902344 -11.183594 4.289062 -13.152344 C 3.710938 -15.015625 3.691406 -16.808594 4.234375 -18.527344 C 4.617188 -19.675781 5.160156 -20.597656 5.859375 -21.300781 C 6.859375 -22.300781 7.925781 -22.800781 9.054688 -22.800781 L 9.964844 -22.800781 L 10.710938 -22.425781 C 11.40625 -22.078125 12.058594 -21.417969 12.667969 -20.445312 C 13.179688 -19.625 13.5625 -18.414062 13.816406 -16.804688 C 14.035156 -15.429688 14.089844 -13.585938 13.972656 -11.277344 Z M 13.972656 -11.277344 "/></g></g></g><g clip-path="url(#5e56885dc8)"><g fill="#f1efe7" fill-opacity="1"><g transform="translate(88.678842, 34.170637)"><g><path d="M 27.011719 -19.128906 C 27.511719 -18.527344 27.84375 -17.855469 28.003906 -17.105469 C 28.15625 -16.390625 28.140625 -15.667969 27.957031 -14.929688 C 27.632812 -13.632812 26.9375 -12.632812 25.871094 -11.921875 C 22.152344 -9.476562 18.425781 -6.855469 14.691406 -4.058594 C 11.039062 -1.328125 7.472656 1.804688 3.984375 5.34375 L 1.46875 2.863281 L 4.953125 3.445312 C 1.878906 21.773438 -1.511719 36.71875 -5.226562 48.285156 C -5.96875 50.605469 -6.796875 52.996094 -7.722656 55.449219 C -8.671875 57.96875 -9.703125 60.332031 -10.816406 62.535156 C -11.992188 64.855469 -13.253906 66.835938 -14.605469 68.480469 C -16.253906 70.488281 -18.046875 71.773438 -19.984375 72.339844 L -20.046875 72.359375 L -20.113281 72.375 C -20.808594 72.546875 -21.480469 72.632812 -22.132812 72.632812 C -24.441406 72.632812 -26.386719 71.65625 -27.972656 69.699219 C -29.484375 67.828125 -30.449219 65.121094 -30.863281 61.582031 C -31.230469 58.441406 -31.164062 54.832031 -30.667969 50.761719 C -30.175781 46.753906 -29.226562 42.511719 -27.824219 38.023438 C -26.417969 33.546875 -24.5625 29.074219 -22.25 24.609375 C -19.53125 19.386719 -16.609375 14.652344 -13.484375 10.40625 C -10.371094 6.175781 -7.160156 2.351562 -3.851562 -1.0625 L -1.316406 1.394531 L -4.796875 0.804688 C -3.617188 -6.175781 -2.488281 -13.570312 -1.40625 -21.375 C -1.226562 -22.644531 -0.632812 -23.699219 0.371094 -24.535156 C 1.464844 -25.445312 2.726562 -25.8125 4.152344 -25.636719 C 5.539062 -25.460938 6.660156 -24.816406 7.519531 -23.703125 C 8.367188 -22.601562 8.703125 -21.363281 8.535156 -19.992188 C 7.648438 -13.542969 6.742188 -7.390625 5.808594 -1.535156 L 2.320312 -2.089844 L -0.09375 -4.667969 C 3.257812 -7.804688 6.664062 -10.652344 10.128906 -13.210938 C 13.542969 -15.730469 16.957031 -18.09375 20.371094 -20.300781 C 21.449219 -21.019531 22.664062 -21.25 24.019531 -20.996094 C 25.503906 -20.71875 26.617188 -19.925781 27.363281 -18.621094 L 24.296875 -16.871094 Z M 21.585938 -14.609375 L 21.386719 -14.847656 L 21.234375 -15.117188 C 21.566406 -14.535156 22.0625 -14.179688 22.71875 -14.058594 C 23.25 -13.957031 23.742188 -14.0625 24.203125 -14.367188 C 20.910156 -12.242188 17.617188 -9.960938 14.324219 -7.527344 C 11.082031 -5.132812 7.886719 -2.460938 4.734375 0.488281 L -2.785156 7.53125 L -1.164062 -2.644531 C -0.242188 -8.449219 0.65625 -14.523438 1.527344 -20.867188 C 1.457031 -20.320312 1.589844 -19.832031 1.921875 -19.398438 C 2.261719 -18.957031 2.714844 -18.699219 3.277344 -18.628906 C 3.878906 -18.554688 4.414062 -18.714844 4.890625 -19.109375 C 5.277344 -19.429688 5.507812 -19.863281 5.585938 -20.410156 C 4.5 -12.535156 3.359375 -5.070312 2.164062 1.980469 L 1.984375 3.0625 L 1.21875 3.847656 C -1.867188 7.035156 -4.871094 10.617188 -7.796875 14.589844 C -10.707031 18.542969 -13.433594 22.96875 -15.980469 27.855469 C -18.101562 31.957031 -19.804688 36.050781 -21.085938 40.132812 C -22.363281 44.210938 -23.21875 48.039062 -23.65625 51.617188 C -24.085938 55.128906 -24.152344 58.179688 -23.847656 60.761719 C -23.59375 62.949219 -23.136719 64.449219 -22.484375 65.257812 C -22.3125 65.46875 -22.195312 65.574219 -22.132812 65.574219 C -22.058594 65.574219 -21.960938 65.558594 -21.828125 65.523438 L -20.972656 68.949219 L -21.960938 65.558594 C -21.417969 65.402344 -20.789062 64.882812 -20.0625 64 C -19.039062 62.753906 -18.058594 61.203125 -17.117188 59.34375 C -16.117188 57.371094 -15.1875 55.242188 -14.332031 52.964844 C -13.449219 50.621094 -12.65625 48.34375 -11.949219 46.125 C -8.339844 34.886719 -5.027344 20.269531 -2.011719 2.28125 L -1.828125 1.179688 L -1.042969 0.382812 C 2.691406 -3.40625 6.527344 -6.769531 10.460938 -9.714844 C 14.308594 -12.59375 18.140625 -15.289062 21.953125 -17.796875 C 21.503906 -17.496094 21.222656 -17.113281 21.105469 -16.644531 C 21.023438 -16.320312 21.023438 -15.980469 21.097656 -15.628906 C 21.179688 -15.238281 21.34375 -14.902344 21.585938 -14.609375 Z M -14.742188 45.210938 C -13.167969 40.242188 -11.621094 34.488281 -10.09375 27.945312 C -8.5625 21.382812 -7.105469 14.132812 -5.722656 6.203125 L -2.242188 6.808594 L 0.390625 9.160156 C -2.097656 11.945312 -4.5 14.996094 -6.816406 18.3125 C -9.125 21.609375 -11.300781 25.253906 -13.339844 29.238281 C -15.617188 33.589844 -17.339844 37.746094 -18.515625 41.707031 C -19.6875 45.671875 -20.433594 49.253906 -20.746094 52.460938 C -21.054688 55.636719 -21.085938 58.269531 -20.832031 60.363281 C -20.714844 61.339844 -20.5625 62.136719 -20.382812 62.753906 C -20.265625 63.140625 -20.171875 63.382812 -20.101562 63.476562 L -22.90625 65.621094 L -20.410156 63.125 C -20.433594 63.101562 -20.480469 63.0625 -20.558594 63.011719 C -20.886719 62.785156 -21.269531 62.636719 -21.707031 62.566406 C -21.742188 62.558594 -21.78125 62.554688 -21.824219 62.554688 L -21.824219 66.085938 L -22.679688 62.660156 C -22.945312 62.726562 -23.140625 62.800781 -23.265625 62.878906 C -23.164062 62.816406 -23.015625 62.710938 -22.820312 62.558594 C -22.53125 62.335938 -22.027344 61.710938 -21.300781 60.683594 C -20.503906 59.550781 -19.558594 57.773438 -18.464844 55.347656 C -17.332031 52.84375 -16.09375 49.460938 -14.742188 45.207031 Z M -8.011719 47.34375 C -9.445312 51.859375 -10.785156 55.496094 -12.027344 58.25 C -13.304688 61.089844 -14.472656 63.257812 -15.53125 64.753906 C -16.664062 66.359375 -17.65625 67.488281 -18.503906 68.144531 C -19.460938 68.882812 -20.28125 69.339844 -20.964844 69.511719 L -21.386719 69.617188 L -21.824219 69.617188 C -22.171875 69.617188 -22.519531 69.585938 -22.867188 69.53125 C -23.765625 69.378906 -24.609375 68.910156 -25.402344 68.117188 L -25.566406 67.953125 L -25.710938 67.765625 C -26.769531 66.378906 -27.480469 64.195312 -27.84375 61.207031 C -28.15625 58.605469 -28.132812 55.460938 -27.773438 51.773438 C -27.417969 48.121094 -26.585938 44.09375 -25.285156 39.699219 C -23.980469 35.304688 -22.09375 30.742188 -19.625 26.015625 C -17.4375 21.746094 -15.097656 17.828125 -12.605469 14.265625 C -10.125 10.722656 -7.550781 7.453125 -4.878906 4.457031 L 3.355469 -4.761719 L 1.234375 7.414062 C -0.171875 15.476562 -1.652344 22.855469 -3.21875 29.550781 C -4.785156 36.269531 -6.382812 42.199219 -8.007812 47.339844 Z M 3.925781 -28.664062 C 2.878906 -28.71875 1.992188 -28.941406 1.261719 -29.332031 C 0.628906 -29.671875 0.121094 -30.121094 -0.273438 -30.6875 C -0.726562 -31.339844 -0.972656 -32.066406 -1.011719 -32.867188 C -1.085938 -34.355469 -0.550781 -35.734375 0.59375 -37 C 1.476562 -37.972656 2.476562 -38.664062 3.589844 -39.070312 L 3.636719 -39.085938 L 3.679688 -39.101562 C 4.507812 -39.375 5.296875 -39.488281 6.046875 -39.4375 C 7.125 -39.367188 8.0625 -38.988281 8.851562 -38.304688 C 9.476562 -37.761719 9.941406 -37.113281 10.242188 -36.355469 C 10.523438 -35.660156 10.644531 -34.914062 10.609375 -34.121094 C 10.535156 -32.566406 9.886719 -31.238281 8.660156 -30.140625 C 7.449219 -29.054688 5.867188 -28.5625 3.914062 -28.664062 Z M 4.285156 -35.71875 C 4.371094 -35.714844 4.445312 -35.714844 4.5 -35.71875 L 4.488281 -35.710938 C 4.308594 -35.664062 4.128906 -35.5625 3.953125 -35.402344 C 3.707031 -35.183594 3.574219 -34.863281 3.554688 -34.441406 C 3.542969 -34.214844 3.585938 -33.980469 3.6875 -33.734375 C 3.808594 -33.429688 3.988281 -33.171875 4.226562 -32.96875 C 4.628906 -32.617188 5.082031 -32.425781 5.578125 -32.394531 C 5.703125 -32.386719 5.808594 -32.386719 5.90625 -32.402344 L 5.914062 -32.402344 L 4.796875 -35.75 L 6.003906 -32.433594 L 6.015625 -32.433594 C 5.960938 -32.398438 5.898438 -32.339844 5.828125 -32.261719 L 5.820312 -32.25 C 5.847656 -32.292969 5.875 -32.34375 5.902344 -32.40625 C 6.011719 -32.652344 6.054688 -32.921875 6.042969 -33.21875 C 6.015625 -33.761719 5.84375 -34.257812 5.53125 -34.710938 C 5.277344 -35.078125 4.964844 -35.359375 4.601562 -35.554688 C 4.4375 -35.640625 4.292969 -35.699219 4.164062 -35.726562 C 4.191406 -35.722656 4.230469 -35.71875 4.277344 -35.71875 Z M 4.285156 -35.71875 "/></g></g></g></g><g fill="#000000" fill-opacity="1"><g transform="translate(6.574391, 34.170637)"><g><path d="M 32.421875 -17.1875 C 32.785156 -17.03125 33.03125 -16.753906 33.15625 -16.359375 C 33.289062 -15.972656 33.28125 -15.601562 33.125 -15.25 C 32.144531 -13.238281 31.070312 -11.222656 29.90625 -9.203125 C 28.75 -7.191406 27.535156 -5.347656 26.265625 -3.671875 C 25.003906 -1.992188 23.703125 -0.65625 22.359375 0.34375 C 21.023438 1.351562 19.6875 1.859375 18.34375 1.859375 C 18.082031 1.859375 17.796875 1.832031 17.484375 1.78125 C 14.035156 1.113281 11.894531 -3.53125 11.0625 -12.15625 C 10.1875 -10.96875 9.164062 -9.632812 8 -8.15625 C 6.84375 -6.6875 5.617188 -5.234375 4.328125 -3.796875 C 4.128906 -3.585938 3.796875 -3.265625 3.328125 -2.828125 C 2.859375 -2.390625 2.316406 -2.039062 1.703125 -1.78125 C 1.085938 -1.519531 0.46875 -1.546875 -0.15625 -1.859375 C -1.394531 -2.316406 -1.988281 -3.65625 -1.9375 -5.875 C -1.9375 -7.164062 -1.691406 -8.765625 -1.203125 -10.671875 C -0.710938 -12.585938 -0.015625 -14.507812 0.890625 -16.4375 C 1.796875 -18.375 2.851562 -20.09375 4.0625 -21.59375 C 5.269531 -23.09375 6.625 -24.097656 8.125 -24.609375 C 9.050781 -24.972656 10.1875 -25.035156 11.53125 -24.796875 C 12.875 -24.566406 14.265625 -23.601562 15.703125 -21.90625 C 15.960938 -21.59375 16.078125 -21.226562 16.046875 -20.8125 C 16.023438 -20.40625 15.863281 -20.070312 15.5625 -19.8125 C 15.25 -19.550781 14.882812 -19.429688 14.46875 -19.453125 C 14.0625 -19.484375 13.726562 -19.65625 13.46875 -19.96875 C 12.226562 -21.414062 11.15625 -22.097656 10.25 -22.015625 C 9.351562 -21.941406 8.59375 -21.671875 7.96875 -21.203125 C 6.832031 -20.378906 5.800781 -19.191406 4.875 -17.640625 C 3.945312 -16.097656 3.171875 -14.472656 2.546875 -12.765625 C 1.929688 -11.066406 1.492188 -9.476562 1.234375 -8 C 0.972656 -6.53125 0.894531 -5.460938 1 -4.796875 C 1.15625 -4.898438 1.320312 -5.03125 1.5 -5.1875 C 1.6875 -5.34375 1.882812 -5.546875 2.09375 -5.796875 C 3.632812 -7.503906 5.050781 -9.195312 6.34375 -10.875 C 7.632812 -12.550781 8.742188 -14.035156 9.671875 -15.328125 C 9.929688 -15.679688 10.175781 -16.023438 10.40625 -16.359375 C 10.632812 -16.703125 10.851562 -17.003906 11.0625 -17.265625 C 11.476562 -17.773438 12.019531 -17.925781 12.6875 -17.71875 C 13.363281 -17.5625 13.726562 -17.125 13.78125 -16.40625 C 13.925781 -13.050781 14.191406 -10.351562 14.578125 -8.3125 C 14.972656 -6.28125 15.398438 -4.757812 15.859375 -3.75 C 16.328125 -2.75 16.765625 -2.066406 17.171875 -1.703125 C 17.585938 -1.335938 17.898438 -1.15625 18.109375 -1.15625 C 19.085938 -0.945312 20.660156 -1.953125 22.828125 -4.171875 C 24.992188 -6.390625 27.523438 -10.492188 30.421875 -16.484375 C 30.617188 -16.898438 30.910156 -17.171875 31.296875 -17.296875 C 31.691406 -17.421875 32.066406 -17.382812 32.421875 -17.1875 Z M 32.421875 -17.1875 "/></g></g></g><g fill="#000000" fill-opacity="1"><g transform="translate(36.289856, 34.170637)"><g><path d="M 31.1875 -17.265625 C 31.550781 -17.054688 31.785156 -16.753906 31.890625 -16.359375 C 31.992188 -15.972656 31.941406 -15.601562 31.734375 -15.25 C 29.304688 -10.96875 27.125 -7.675781 25.1875 -5.375 C 23.25 -3.082031 21.273438 -2.066406 19.265625 -2.328125 C 16.691406 -2.628906 14.65625 -5.414062 13.15625 -10.6875 C 12.632812 -12.382812 12.179688 -13.609375 11.796875 -14.359375 C 11.410156 -15.109375 11.101562 -15.570312 10.875 -15.75 C 10.644531 -15.925781 10.476562 -16.015625 10.375 -16.015625 C 10.21875 -16.066406 9.90625 -15.910156 9.4375 -15.546875 C 8.976562 -15.191406 8.304688 -14.394531 7.421875 -13.15625 C 6.546875 -11.914062 5.460938 -9.992188 4.171875 -7.390625 C 2.890625 -4.785156 1.316406 -1.210938 -0.546875 3.328125 C -0.796875 3.941406 -1.234375 4.25 -1.859375 4.25 C -2.015625 4.25 -2.144531 4.222656 -2.25 4.171875 C -3.125 3.972656 -3.507812 3.429688 -3.40625 2.546875 C -3.144531 0.429688 -2.675781 -2.015625 -2 -4.796875 C -1.332031 -7.585938 -0.601562 -10.425781 0.1875 -13.3125 C 0.988281 -16.195312 1.726562 -18.773438 2.40625 -21.046875 C 2.550781 -21.566406 2.6875 -22.046875 2.8125 -22.484375 C 2.945312 -22.921875 3.066406 -23.347656 3.171875 -23.765625 C 3.328125 -24.171875 3.582031 -24.460938 3.9375 -24.640625 C 4.300781 -24.828125 4.664062 -24.867188 5.03125 -24.765625 C 5.445312 -24.660156 5.753906 -24.425781 5.953125 -24.0625 C 6.160156 -23.707031 6.1875 -23.320312 6.03125 -22.90625 C 5.925781 -22.488281 5.8125 -22.0625 5.6875 -21.625 C 5.5625 -21.1875 5.421875 -20.710938 5.265625 -20.203125 C 4.898438 -18.859375 4.484375 -17.382812 4.015625 -15.78125 C 3.554688 -14.1875 3.09375 -12.5625 2.625 -10.90625 C 4.382812 -14.207031 5.882812 -16.398438 7.125 -17.484375 C 8.363281 -18.566406 9.5 -19.082031 10.53125 -19.03125 C 11.96875 -18.9375 13.097656 -18.140625 13.921875 -16.640625 C 14.753906 -15.140625 15.453125 -13.410156 16.015625 -11.453125 C 16.796875 -8.765625 17.519531 -7.0625 18.1875 -6.34375 C 18.851562 -5.625 19.34375 -5.265625 19.65625 -5.265625 C 20.320312 -5.160156 21.109375 -5.53125 22.015625 -6.375 C 22.921875 -7.226562 23.820312 -8.3125 24.71875 -9.625 C 25.625 -10.945312 26.476562 -12.253906 27.28125 -13.546875 C 28.082031 -14.835938 28.6875 -15.894531 29.09375 -16.71875 C 29.300781 -17.082031 29.609375 -17.3125 30.015625 -17.40625 C 30.429688 -17.507812 30.820312 -17.460938 31.1875 -17.265625 Z M 31.1875 -17.265625 "/></g></g></g><g fill="#000000" fill-opacity="1"><g transform="translate(63.915955, 34.170637)"><g><path d="M 28.015625 -16.875 C 28.378906 -16.613281 28.585938 -16.273438 28.640625 -15.859375 C 28.691406 -15.453125 28.585938 -15.09375 28.328125 -14.78125 C 26.984375 -13.082031 25.421875 -11.5625 23.640625 -10.21875 C 21.859375 -8.875 20 -7.878906 18.0625 -7.234375 C 16.132812 -6.585938 14.265625 -6.472656 12.453125 -6.890625 C 11.734375 -5.078125 10.710938 -3.679688 9.390625 -2.703125 C 8.078125 -1.722656 6.753906 -1.234375 5.421875 -1.234375 C 5.421875 -1.234375 5.40625 -1.234375 5.375 -1.234375 C 5.351562 -1.234375 5.34375 -1.234375 5.34375 -1.234375 C 3.945312 -1.285156 2.71875 -1.765625 1.65625 -2.671875 C 0.601562 -3.578125 -0.128906 -4.828125 -0.546875 -6.421875 C -1.003906 -8.222656 -1.078125 -9.9375 -0.765625 -11.5625 C -0.460938 -13.1875 0.0976562 -14.617188 0.921875 -15.859375 C 1.753906 -17.097656 2.6875 -18.054688 3.71875 -18.734375 C 4.070312 -18.984375 4.484375 -19.035156 4.953125 -18.890625 C 5.421875 -20.015625 6.078125 -20.882812 6.921875 -21.5 C 7.773438 -22.125 8.664062 -22.363281 9.59375 -22.21875 C 10.164062 -22.113281 10.785156 -21.765625 11.453125 -21.171875 C 12.117188 -20.578125 12.660156 -19.515625 13.078125 -17.984375 C 13.492188 -16.460938 13.625 -14.234375 13.46875 -11.296875 C 13.414062 -10.785156 13.335938 -10.269531 13.234375 -9.75 C 14.628906 -9.488281 16.097656 -9.640625 17.640625 -10.203125 C 19.191406 -10.773438 20.6875 -11.640625 22.125 -12.796875 C 23.570312 -13.960938 24.835938 -15.242188 25.921875 -16.640625 C 26.179688 -16.953125 26.515625 -17.132812 26.921875 -17.1875 C 27.335938 -17.238281 27.703125 -17.132812 28.015625 -16.875 Z M 5.421875 -4.25 C 6.085938 -4.25 6.832031 -4.554688 7.65625 -5.171875 C 8.488281 -5.796875 9.160156 -6.726562 9.671875 -7.96875 C 7.816406 -9 6.488281 -10.1875 5.6875 -11.53125 C 4.882812 -12.875 4.457031 -14.21875 4.40625 -15.5625 C 3.320312 -14.519531 2.613281 -13.195312 2.28125 -11.59375 C 1.945312 -10 1.960938 -8.5625 2.328125 -7.28125 C 2.472656 -6.707031 2.78125 -6.054688 3.25 -5.328125 C 3.71875 -4.609375 4.441406 -4.25 5.421875 -4.25 Z M 10.453125 -11.453125 C 10.554688 -13.515625 10.515625 -15.113281 10.328125 -16.25 C 10.148438 -17.382812 9.929688 -18.15625 9.671875 -18.5625 C 9.410156 -18.976562 9.226562 -19.210938 9.125 -19.265625 C 9.082031 -19.265625 9.0625 -19.265625 9.0625 -19.265625 C 8.90625 -19.265625 8.671875 -19.109375 8.359375 -18.796875 C 8.046875 -18.492188 7.785156 -18.03125 7.578125 -17.40625 C 7.273438 -16.425781 7.300781 -15.351562 7.65625 -14.1875 C 8.019531 -13.03125 8.953125 -11.960938 10.453125 -10.984375 C 10.453125 -11.140625 10.453125 -11.296875 10.453125 -11.453125 Z M 10.453125 -11.453125 "/></g></g></g><g clip-path="url(#b5ae8b4673)"><g fill="#000000" fill-opacity="1"><g transform="translate(88.678842, 34.170637)"><g><path d="M 24.296875 -16.875 C 24.554688 -16.5625 24.632812 -16.195312 24.53125 -15.78125 C 24.425781 -15.375 24.21875 -15.066406 23.90625 -14.859375 C 20.144531 -12.378906 16.367188 -9.71875 12.578125 -6.875 C 8.785156 -4.039062 5.082031 -0.796875 1.46875 2.859375 C -1.570312 21.023438 -4.925781 35.804688 -8.59375 47.203125 C -9.3125 49.472656 -10.117188 51.804688 -11.015625 54.203125 C -11.921875 56.609375 -12.90625 58.851562 -13.96875 60.9375 C -15.03125 63.03125 -16.148438 64.796875 -17.328125 66.234375 C -18.515625 67.679688 -19.726562 68.585938 -20.96875 68.953125 C -21.382812 69.054688 -21.773438 69.109375 -22.140625 69.109375 C -23.316406 69.109375 -24.347656 68.566406 -25.234375 67.484375 C -26.316406 66.140625 -27.023438 64.035156 -27.359375 61.171875 C -27.691406 58.304688 -27.625 54.976562 -27.15625 51.1875 C -26.695312 47.394531 -25.796875 43.359375 -24.453125 39.078125 C -23.109375 34.796875 -21.328125 30.515625 -19.109375 26.234375 C -16.484375 21.179688 -13.660156 16.601562 -10.640625 12.5 C -7.617188 8.394531 -4.507812 4.691406 -1.3125 1.390625 C -0.125 -5.617188 1.007812 -13.046875 2.09375 -20.890625 C 2.144531 -21.253906 2.320312 -21.566406 2.625 -21.828125 C 2.9375 -22.085938 3.300781 -22.191406 3.71875 -22.140625 C 4.125 -22.085938 4.457031 -21.890625 4.71875 -21.546875 C 4.976562 -21.210938 5.082031 -20.84375 5.03125 -20.4375 C 4.15625 -14.03125 3.253906 -7.914062 2.328125 -2.09375 C 5.578125 -5.132812 8.878906 -7.890625 12.234375 -10.359375 C 15.585938 -12.835938 18.9375 -15.160156 22.28125 -17.328125 C 22.59375 -17.535156 22.953125 -17.597656 23.359375 -17.515625 C 23.773438 -17.441406 24.085938 -17.226562 24.296875 -16.875 Z M -11.375 46.28125 C -9.78125 41.226562 -8.207031 35.382812 -6.65625 28.75 C -5.101562 22.125 -3.632812 14.8125 -2.25 6.8125 C -4.820312 9.695312 -7.304688 12.851562 -9.703125 16.28125 C -12.109375 19.71875 -14.367188 23.5 -16.484375 27.625 C -18.859375 32.164062 -20.664062 36.523438 -21.90625 40.703125 C -23.144531 44.878906 -23.929688 48.679688 -24.265625 52.109375 C -24.597656 55.546875 -24.617188 58.4375 -24.328125 60.78125 C -24.046875 63.132812 -23.570312 64.75 -22.90625 65.625 C -22.644531 65.882812 -22.4375 66.023438 -22.28125 66.046875 C -22.132812 66.078125 -21.984375 66.09375 -21.828125 66.09375 C -21.617188 66.039062 -21.226562 65.796875 -20.65625 65.359375 C -20.09375 64.921875 -19.347656 64.039062 -18.421875 62.71875 C -17.492188 61.40625 -16.4375 59.429688 -15.25 56.796875 C -14.0625 54.171875 -12.769531 50.664062 -11.375 46.28125 Z M 4.109375 -32.1875 C 3.066406 -32.238281 2.53125 -32.519531 2.5 -33.03125 C 2.476562 -33.550781 2.710938 -34.082031 3.203125 -34.625 C 3.703125 -35.164062 4.234375 -35.539062 4.796875 -35.75 C 5.566406 -36.007812 6.144531 -35.972656 6.53125 -35.640625 C 6.925781 -35.304688 7.109375 -34.851562 7.078125 -34.28125 C 7.054688 -33.71875 6.800781 -33.210938 6.3125 -32.765625 C 5.820312 -32.328125 5.085938 -32.132812 4.109375 -32.1875 Z M 4.109375 -32.1875 "/></g></g></g></g></g></g></g></g></g></svg>